# xmcd
#
# Track frame offsets:
#	182
#	20620
#	35077
#
# Disc length: 762 seconds
#
# Revision: 0
# Processed by: cddbd v1.5.2PL0 Copyright (c) Steve Scherf et al.
# Submitted via: VUPlayer 2.49
#
DISCID=2002f803
DTITLE=BZN - La Différence
DYEAR=1988
DGENRE=Pop
TTITLE0=La Différence
TTITLE1=Where is Your Heart
TTITLE2=Marching On =Live=
EXTD=
EXTT0=
EXTT1=
EXTT2=
PLAYORDER=
